<svg xmlns="http://www.w3.org/2000/svg" viewBox="0 0 448 512" width="30" height="30">
  <path fill="#ffffff" d="M224.1 141c-63.6 0-114.9 51.3-114.9 114.9s51.3 114.9 114.9 114.9S339 319.5 339 255.9 287.7 141 224.1 141zm0 189.6c-41.1 0-74.7-33.5-74.7-74.7s33.5-74.7 74.7-74.7 74.7 33.5 74.7 74.7-33.5 74.7-74.7 74.7zm146.4-194.3c0 14.9-12 26.8-26.8 26.8-14.9 0-26.8-12-26.8-26.8s12-26.8 26.8-26.8 26.8 12 26.8 26.8zm76.1 27.2c-1.7-35.9-9.9-67.7-36.2-93.9-26.2-26.2-58-34.4-93.9-36.2-37-2.1-147.9-2.1-184.9 0-35.8 1.7-67.6 9.9-93.9 36.1s-34.4 58-36.2 93.9c-2.1 37-2.1 147.9 0 184.9 1.7 35.9 9.9 67.7 36.2 93.9s58 34.4 93.9 36.2c37 2.1 147.9 2.1 184.9 0 35.9-1.7 67.7-9.9 93.9-36.2 26.2-26.2 34.4-58 36.2-93.9 2.1-37 2.1-147.8 0-184.8zM398.8 388c-1.9 19.6-4.5 30.2-16.8 42.5-11.8 11.8-22.9 15-42.5 16.9-31.2 1.7-124.7 1.7-156 0-19.6-1.9-30.7-5.1-42.5-16.9-12.3-12.3-15-22.9-16.9-42.5-1.7-31.2-1.7-124.7 0-156 1.9-19.6 5.1-30.7 16.9-42.5 11.8-11.8 22.9-15 42.5-16.9 31.2-1.7 124.7-1.7 156 0 19.6 1.9 30.2 5.1 42.5 16.9 12.3 12.3 15 22.9 16.9 42.5 1.7 31.3 1.7 124.7 0 156z"/>
</svg>