<svg width="24" height="24" viewBox="0 0 24 24" fill="none" xmlns="http://www.w3.org/2000/svg">
  <path d="M22 16.92V19.92C22.0011 20.4811 21.7806 21.0195 21.3872 21.4128C20.9939 21.8062 20.4555 22.0267 19.8944 22.0256C16.9048 21.9934 14.0206 21.2618 11.39 19.88C8.94632 18.5714 6.84073 16.7118 5.28 14.47C3.65217 11.7587 2.76865 8.74028 2.72 5.63999C2.71887 5.07897 2.93943 4.54054 3.33276 4.14722C3.72608 3.75389 4.26451 3.53333 4.82556 3.53333H7.82556C8.80911 3.52841 9.64551 4.25707 9.77778 5.2311C9.87779 5.97544 10.0597 6.70889 10.32 7.41999C10.6015 8.16382 10.4285 9.00664 9.87556 9.57554L8.60667 10.8444C10.0335 13.3512 12.1155 15.4332 14.6222 16.86L15.8911 15.5911C16.46 15.0382 17.3028 14.8651 18.0467 15.1467C18.7578 15.4069 19.4912 15.5889 20.2356 15.6889C21.218 15.823 21.9515 16.669 21.9556 17.6622L22 16.92Z" stroke="white" stroke-width="2" stroke-linecap="round" stroke-linejoin="round"/>
</svg>